<?xml version="1.0" encoding="utf-8"?>
<!DOCTYPE svg PUBLIC "-//W3C//DTD SVG 1.1//EN" "http://www.w3.org/Graphics/SVG/1.1/DTD/svg11.dtd">

<svg version="1.1" id="Layer_1" xmlns="http://www.w3.org/2000/svg" xmlns:xlink="http://www.w3.org/1999/xlink"
    x="0px" y="0px" width="200px" height="200px" viewBox="0 0 397 397" enable-background="new 0 0 397 397" xml:space="preserve">
    
    <g>
    	<path fill="#0066CC" d="M391.454,151.775l-41.821,48.97l30.148,78.722C390.843,254.74,397,227.34,397,198.5
    		C397,182.404,395.07,166.76,391.454,151.775z M225.598,161.884c0,46.101-25.146,73.913-59.816,87.248l33.823,86.824l47.92-239.604
    		h60.96l-18.669,93.725h1.523l78.913-91.139C335.887,39.781,271.843,0,198.5,0C88.872,0,0,88.872,0,198.5
    		c0,30.374,6.833,59.149,19.028,84.889L56.436,96.352h81.533C187.499,96.352,225.598,113.878,225.598,161.884z M272.671,275.421
    		L258.955,344h-56.217h-4.742h-59.265l-28.575-85.344H84.629l-17.472,88.662C102.156,378.23,148.133,397,198.5,397
    		c55.043,0,104.849-22.408,140.805-58.594l-34.63-99.562L272.671,275.421z M107.489,144.358l-12.954,66.293h22.098
    		c32.766,0,48.768-16.002,48.768-39.624c0-18.288-12.954-26.669-35.813-26.669H107.489z"/>
    </g>
</svg>
